<?xml version="1.0" encoding="UTF-8" standalone="no"?>
<!DOCTYPE svg PUBLIC "-//W3C//DTD SVG 1.1//EN" "http://www.w3.org/Graphics/SVG/1.1/DTD/svg11.dtd">
<svg version="1.1" xmlns:dc="http://purl.org/dc/elements/1.1/" xmlns="http://www.w3.org/2000/svg" xmlns:xl="http://www.w3.org/1999/xlink" viewBox="4 17 581 197" width="581" height="197">
  <defs>
    <marker orient="auto" overflow="visible" markerUnits="strokeWidth" id="FilledArrow_Marker" stroke-linejoin="miter" stroke-miterlimit="10" viewBox="-1 -4 10 8" markerWidth="10" markerHeight="8" color="#8d96d5">
      <g>
        <path d="M 8 0 L 0 -3 L 0 3 Z" fill="currentColor" stroke="currentColor" stroke-width="1"/>
      </g>
    </marker>
    <filter id="Shadow" filterUnits="userSpaceOnUse" x="-54.1" y="-2.7">
      <feGaussianBlur in="SourceAlpha" result="blur" stdDeviation="1.744"/>
      <feOffset in="blur" result="offset" dx="2" dy="2"/>
      <feFlood flood-color="#afb8ff" flood-opacity=".5" result="flood"/>
      <feComposite in="flood" in2="offset" operator="in" result="color"/>
      <feMerge>
        <feMergeNode in="color"/>
        <feMergeNode in="SourceGraphic"/>
      </feMerge>
    </filter>
  </defs>
  <g id="Unwind" fill-opacity="1" stroke-dasharray="none" stroke="none" stroke-opacity="1" fill="none">
    <title>Unwind</title>
    <rect fill="#000314" x="4" y="17" width="581" height="197"/>
    <g id="Unwind_Layer_1">
      <title>Layer 1</title>
      <g id="Graphic_3">
        <text transform="translate(10.914907 142)" fill="white" fill-opacity=".61043">
          <tspan font-family="Roboto Condensed" font-weight="bold" font-size="16" fill="white" fill-opacity=".61043" x="0" y="15" xml:space="preserve">OSTD API Boundary</tspan>
        </text>
      </g>
      <g id="Line_2">
        <line x1="5" y1="136" x2="584" y2="136" stroke="#666" stroke-linecap="round" stroke-linejoin="round" stroke-width="2"/>
      </g>
      <g id="Group_37">
        <g id="Group_36">
          <g id="Graphic_35">
            <circle cx="29.09155" cy="77.216745" r="10.5000167779699" fill="#1c643d"/>
          </g>
          <g id="Graphic_34">
            <title>check</title>
            <text transform="translate(18.59155 68.716745)" fill="white">
              <tspan font-family="FontAwesome" font-size="18" fill="white" x="1.5" y="15" xml:space="preserve"></tspan>
            </text>
          </g>
        </g>
        <g id="Graphic_32">
          <path d="M 17 88.77778 L 17 65.57778 L 19.7 63 L 44 63 L 44 86.2 L 41.3 88.77778 Z" fill="#43411e" fill-opacity=".5"/>
          <path d="M 17 88.77778 L 17 65.57778 L 19.7 63 L 44 63 L 44 86.2 L 41.3 88.77778 L 17 88.77778 M 17 65.57778 L 41.3 65.57778 L 44 63 M 41.3 65.57778 L 41.3 88.77778" stroke="#666" stroke-linecap="round" stroke-linejoin="round" stroke-width=".5"/>
        </g>
      </g>
      <g id="Group_38">
        <g id="Group_40">
          <g id="Graphic_42">
            <circle cx="128.09155" cy="77.216745" r="10.5000167779699" fill="#1c643d"/>
          </g>
          <g id="Graphic_41">
            <title>check</title>
            <text transform="translate(117.59155 68.716745)" fill="white">
              <tspan font-family="FontAwesome" font-size="18" fill="white" x="1.5" y="15" xml:space="preserve"></tspan>
            </text>
          </g>
        </g>
        <g id="Graphic_39">
          <path d="M 116 88.77778 L 116 65.57778 L 118.7 63 L 143 63 L 143 86.2 L 140.3 88.77778 Z" fill="#43411e" fill-opacity=".5"/>
          <path d="M 116 88.77778 L 116 65.57778 L 118.7 63 L 143 63 L 143 86.2 L 140.3 88.77778 L 116 88.77778 M 116 65.57778 L 140.3 65.57778 L 143 63 M 140.3 65.57778 L 140.3 88.77778" stroke="#666" stroke-linecap="round" stroke-linejoin="round" stroke-width=".5"/>
        </g>
      </g>
      <g id="Line_43">
        <line x1="44" y1="75.88889" x2="106.1" y2="75.88889" marker-end="url(#FilledArrow_Marker)" stroke="#8d96d5" stroke-linecap="round" stroke-linejoin="round" stroke-width="1"/>
      </g>
      <g id="Graphic_44">
        <text transform="translate(22 20.5)" fill="#8d96d5">
          <tspan font-family="Roboto Condensed" font-size="12" fill="#8d96d5" x="0" y="11" xml:space="preserve">Caller’s steps</tspan>
        </text>
      </g>
      <g id="Graphic_45" filter="url(#Shadow)">
        <text transform="translate(26 34.5)" fill="white">
          <tspan font-family="Roboto Condensed" font-style="italic" font-size="12" fill="white" x="0" y="11" xml:space="preserve">- Rust type rules enforced</tspan>
          <tspan font-family="Roboto Condensed" font-style="italic" font-size="12" fill="white" x="0" y="25" xml:space="preserve">- No access to OSTD internals</tspan>
        </text>
      </g>
      <g id="Group_46">
        <g id="Group_48">
          <g id="Graphic_50">
            <circle cx="167.09155" cy="175.43897" r="10.5000167779699" fill="#1c643d"/>
          </g>
          <g id="Graphic_49">
            <title>check</title>
            <text transform="translate(156.59155 166.93897)" fill="white">
              <tspan font-family="FontAwesome" font-size="18" fill="white" x="1.5" y="15" xml:space="preserve"></tspan>
            </text>
          </g>
        </g>
        <g id="Graphic_47">
          <path d="M 155 187 L 155 163.8 L 157.7 161.22222 L 182 161.22222 L 182 184.42222 L 179.3 187 Z" fill="#43411e" fill-opacity=".5"/>
          <path d="M 155 187 L 155 163.8 L 157.7 161.22222 L 182 161.22222 L 182 184.42222 L 179.3 187 L 155 187 M 155 163.8 L 179.3 163.8 L 182 161.22222 M 179.3 163.8 L 179.3 187" stroke="#666" stroke-linecap="round" stroke-linejoin="round" stroke-width=".5"/>
        </g>
      </g>
      <g id="Line_51">
        <line x1="134.61765" y1="88.77778" x2="159.72893" y2="152.021" marker-end="url(#FilledArrow_Marker)" stroke="#8d96d5" stroke-linecap="round" stroke-linejoin="round" stroke-width="1"/>
      </g>
      <g id="Graphic_52">
        <text transform="translate(151 89.5)" fill="#8d96d5">
          <tspan font-family="Roboto Condensed" font-size="12" fill="#8d96d5" x="0" y="11" xml:space="preserve">OSTD call step:</tspan>
        </text>
      </g>
      <g id="Graphic_53" filter="url(#Shadow)">
        <text transform="translate(156 104.5)" fill="white">
          <tspan font-family="Roboto Condensed" font-style="italic" font-size="12" fill="white" x="0" y="11" xml:space="preserve">- Proved UB free</tspan>
          <tspan font-family="Roboto Condensed" font-style="italic" font-size="12" fill="white" x="0" y="25" xml:space="preserve">- Invariants preservation</tspan>
        </text>
      </g>
      <g id="Group_54">
        <g id="Group_56">
          <g id="Graphic_58">
            <circle cx="252.09155" cy="175.43897" r="10.5000167779699" fill="#1c643d"/>
          </g>
          <g id="Graphic_57">
            <title>check</title>
            <text transform="translate(241.59155 166.93897)" fill="white">
              <tspan font-family="FontAwesome" font-size="18" fill="white" x="1.5" y="15" xml:space="preserve"></tspan>
            </text>
          </g>
        </g>
        <g id="Graphic_55">
          <path d="M 240 187 L 240 163.8 L 242.7 161.22222 L 267 161.22222 L 267 184.42222 L 264.3 187 Z" fill="#43411e" fill-opacity=".5"/>
          <path d="M 240 187 L 240 163.8 L 242.7 161.22222 L 267 161.22222 L 267 184.42222 L 264.3 187 L 240 187 M 240 163.8 L 264.3 163.8 L 267 161.22222 M 264.3 163.8 L 264.3 187" stroke="#666" stroke-linecap="round" stroke-linejoin="round" stroke-width=".5"/>
        </g>
      </g>
      <g id="Line_59">
        <line x1="182" y1="174.11111" x2="230.1" y2="174.11111" marker-end="url(#FilledArrow_Marker)" stroke="#8d96d5" stroke-linecap="round" stroke-linejoin="round" stroke-dasharray="4.0,4.0" stroke-width="1"/>
      </g>
      <g id="Graphic_60" filter="url(#Shadow)">
        <text transform="translate(184 186.5)" fill="white">
          <tspan font-family="Roboto Condensed" font-style="italic" font-size="12" fill="white" x="0" y="11" xml:space="preserve">Correctness</tspan>
        </text>
      </g>
      <g id="Group_61">
        <g id="Group_63">
          <g id="Graphic_65">
            <circle cx="289.09155" cy="77.216745" r="10.5000167779699" fill="#1c643d"/>
          </g>
          <g id="Graphic_64">
            <title>check</title>
            <text transform="translate(278.59155 68.716745)" fill="white">
              <tspan font-family="FontAwesome" font-size="18" fill="white" x="1.5" y="15" xml:space="preserve"></tspan>
            </text>
          </g>
        </g>
        <g id="Graphic_62">
          <path d="M 277 88.77778 L 277 65.57778 L 279.7 63 L 304 63 L 304 86.2 L 301.3 88.77778 Z" fill="#43411e" fill-opacity=".5"/>
          <path d="M 277 88.77778 L 277 65.57778 L 279.7 63 L 304 63 L 304 86.2 L 301.3 88.77778 L 277 88.77778 M 277 65.57778 L 301.3 65.57778 L 304 63 M 301.3 65.57778 L 301.3 88.77778" stroke="#666" stroke-linecap="round" stroke-linejoin="round" stroke-width=".5"/>
        </g>
      </g>
      <g id="Line_66">
        <line x1="258.3552" y1="161.22222" x2="282.1549" y2="98.04226" marker-end="url(#FilledArrow_Marker)" stroke="#8d96d5" stroke-linecap="round" stroke-linejoin="round" stroke-width="1"/>
      </g>
      <g id="Line_67">
        <line x1="304" y1="75.88889" x2="340.1" y2="75.88889" marker-end="url(#FilledArrow_Marker)" stroke="#8d96d5" stroke-linecap="round" stroke-linejoin="round" stroke-dasharray="4.0,4.0" stroke-width="1"/>
      </g>
      <g id="Group_68">
        <g id="Group_70">
          <g id="Graphic_72">
            <circle cx="362.09155" cy="77.216745" r="10.5000167779699" fill="#1c643d"/>
          </g>
          <g id="Graphic_71">
            <title>check</title>
            <text transform="translate(351.59155 68.716745)" fill="white">
              <tspan font-family="FontAwesome" font-size="18" fill="white" x="1.5" y="15" xml:space="preserve"></tspan>
            </text>
          </g>
        </g>
        <g id="Graphic_69">
          <path d="M 350 88.77778 L 350 65.57778 L 352.7 63 L 377 63 L 377 86.2 L 374.3 88.77778 Z" fill="#43411e" fill-opacity=".5"/>
          <path d="M 350 88.77778 L 350 65.57778 L 352.7 63 L 377 63 L 377 86.2 L 374.3 88.77778 L 350 88.77778 M 350 65.57778 L 374.3 65.57778 L 377 63 M 374.3 65.57778 L 374.3 88.77778" stroke="#666" stroke-linecap="round" stroke-linejoin="round" stroke-width=".5"/>
        </g>
      </g>
      <g id="Graphic_73">
        <text transform="translate(294 45.5)" fill="#8d96d5">
          <tspan font-family="Roboto Condensed" font-size="12" fill="#8d96d5" x="0" y="11" xml:space="preserve">Caller’s steps</tspan>
        </text>
      </g>
      <g id="Group_83">
        <g id="Group_85">
          <g id="Graphic_87">
            <circle cx="401.59155" cy="175.43897" r="10.5000167779699" fill="#1c643d"/>
          </g>
          <g id="Graphic_86">
            <title>check</title>
            <text transform="translate(391.09155 166.93897)" fill="white">
              <tspan font-family="FontAwesome" font-size="18" fill="white" x="1.5" y="15" xml:space="preserve"></tspan>
            </text>
          </g>
        </g>
        <g id="Graphic_84">
          <path d="M 389.5 187 L 389.5 163.8 L 392.2 161.22222 L 416.5 161.22222 L 416.5 184.42222 L 413.8 187 Z" fill="#43411e" fill-opacity=".5"/>
          <path d="M 389.5 187 L 389.5 163.8 L 392.2 161.22222 L 416.5 161.22222 L 416.5 184.42222 L 413.8 187 L 389.5 187 M 389.5 163.8 L 413.8 163.8 L 416.5 161.22222 M 413.8 163.8 L 413.8 187" stroke="#666" stroke-linecap="round" stroke-linejoin="round" stroke-width=".5"/>
        </g>
      </g>
      <g id="Line_82">
        <line x1="368.68326" y1="88.77778" x2="394.12296" y2="152.03713" marker-end="url(#FilledArrow_Marker)" stroke="#8d96d5" stroke-linecap="round" stroke-linejoin="round" stroke-width="1"/>
      </g>
      <g id="Group_77">
        <g id="Group_79">
          <g id="Graphic_81">
            <circle cx="470.09155" cy="175.43897" r="10.5000167779699" fill="#1c643d"/>
          </g>
          <g id="Graphic_80">
            <title>check</title>
            <text transform="translate(459.59155 166.93897)" fill="white">
              <tspan font-family="FontAwesome" font-size="18" fill="white" x="1.5" y="15" xml:space="preserve"></tspan>
            </text>
          </g>
        </g>
        <g id="Graphic_78">
          <path d="M 458 187 L 458 163.8 L 460.7 161.22222 L 485 161.22222 L 485 184.42222 L 482.3 187 Z" fill="#43411e" fill-opacity=".5"/>
          <path d="M 458 187 L 458 163.8 L 460.7 161.22222 L 485 161.22222 L 485 184.42222 L 482.3 187 L 458 187 M 458 163.8 L 482.3 163.8 L 485 161.22222 M 482.3 163.8 L 482.3 187" stroke="#666" stroke-linecap="round" stroke-linejoin="round" stroke-width=".5"/>
        </g>
      </g>
      <g id="Line_76">
        <line x1="416.5" y1="174.11111" x2="448.1" y2="174.11111" marker-end="url(#FilledArrow_Marker)" stroke="#8d96d5" stroke-linecap="round" stroke-linejoin="round" stroke-dasharray="4.0,4.0" stroke-width="1"/>
      </g>
      <g id="Line_74">
        <line x1="474.6493" y1="161.22222" x2="490.0008" y2="98.39485" marker-end="url(#FilledArrow_Marker)" stroke="#8d96d5" stroke-linecap="round" stroke-linejoin="round" stroke-width="1"/>
      </g>
      <g id="Graphic_88">
        <text transform="translate(392 107.5)" fill="#8d96d5">
          <tspan font-family="Roboto Condensed" font-size="12" fill="#8d96d5" x="0" y="11" xml:space="preserve">OSTD call step</tspan>
        </text>
      </g>
      <g id="Group_89">
        <g id="Group_91">
          <g id="Graphic_93">
            <circle cx="494.09155" cy="77.216745" r="10.5000167779699" fill="#1c643d"/>
          </g>
          <g id="Graphic_92">
            <title>check</title>
            <text transform="translate(483.59155 68.716745)" fill="white">
              <tspan font-family="FontAwesome" font-size="18" fill="white" x="1.5" y="15" xml:space="preserve"></tspan>
            </text>
          </g>
        </g>
        <g id="Graphic_90">
          <path d="M 482 88.77778 L 482 65.57778 L 484.7 63 L 509 63 L 509 86.2 L 506.3 88.77778 Z" fill="#43411e" fill-opacity=".5"/>
          <path d="M 482 88.77778 L 482 65.57778 L 484.7 63 L 509 63 L 509 86.2 L 506.3 88.77778 L 482 88.77778 M 482 65.57778 L 506.3 65.57778 L 509 63 M 506.3 65.57778 L 506.3 88.77778" stroke="#666" stroke-linecap="round" stroke-linejoin="round" stroke-width=".5"/>
        </g>
      </g>
      <g id="Line_94">
        <line x1="509" y1="75.92999" x2="550.65905" y2="76.05682" marker-end="url(#FilledArrow_Marker)" stroke="#8d96d5" stroke-linecap="round" stroke-linejoin="round" stroke-dasharray="4.0,4.0" stroke-width="1"/>
      </g>
      <g id="Graphic_95" filter="url(#Shadow)">
        <text transform="translate(392 186.5)" fill="white">
          <tspan font-family="Roboto Condensed" font-style="italic" font-size="12" fill="white" x="0" y="11" xml:space="preserve">Verified OSTD APIs</tspan>
        </text>
      </g>
    </g>
  </g>
</svg>
