<?xml version="1.0" encoding="UTF-8" standalone="no"?>
<!DOCTYPE svg PUBLIC "-//W3C//DTD SVG 1.1//EN" "http://www.w3.org/Graphics/SVG/1.1/DTD/svg11.dtd">
<svg version="1.1" xmlns:dc="http://purl.org/dc/elements/1.1/" xmlns="http://www.w3.org/2000/svg" xmlns:xl="http://www.w3.org/1999/xlink" viewBox="-122 6 798 411" width="798" height="411">
  <defs>
    <linearGradient x1="0" x2="1" id="Gradient" gradientUnits="userSpaceOnUse">
      <stop offset="0" stop-color="#16432a"/>
      <stop offset="1" stop-color="#333" stop-opacity="0"/>
    </linearGradient>
    <linearGradient id="Obj_Gradient" xl:href="#Gradient" gradientTransform="translate(405 350) rotate(90) scale(36)"/>
    <linearGradient id="Obj_Gradient_2" xl:href="#Gradient" gradientTransform="translate(114 350) rotate(90) scale(36)"/>
    <linearGradient x1="0" x2="1" id="Gradient_2" gradientUnits="userSpaceOnUse">
      <stop offset="0" stop-color="#c8e9c4" stop-opacity=".45947266"/>
      <stop offset="1" stop-color="#1b4d69" stop-opacity=".12462023"/>
    </linearGradient>
    <linearGradient id="Obj_Gradient_3" xl:href="#Gradient_2" gradientTransform="translate(-24.5 64.93137) rotate(90) scale(322)"/>
    <linearGradient id="Obj_Gradient_4" xl:href="#Gradient_2" gradientTransform="translate(545.5 386.93137) rotate(-90) scale(322)"/>
    <marker orient="auto" overflow="visible" markerUnits="strokeWidth" id="FilledArrow_Marker" stroke-linejoin="miter" stroke-miterlimit="10" viewBox="-1 -3 6 6" markerWidth="6" markerHeight="6" color="#c8e9c4">
      <g>
        <path d="M 3.84 0 L 0 -1.44 L 0 1.44 Z" fill="currentColor" stroke="currentColor" stroke-width="1"/>
      </g>
    </marker>
    <marker orient="auto" overflow="visible" markerUnits="strokeWidth" id="FilledArrow_Marker_2" stroke-linejoin="miter" stroke-miterlimit="10" viewBox="-1 -4 10 8" markerWidth="10" markerHeight="8" color="#8d96d5">
      <g>
        <path d="M 8 0 L 0 -3 L 0 3 Z" fill="currentColor" stroke="currentColor" stroke-width="1"/>
      </g>
    </marker>
    <filter id="Shadow" filterUnits="userSpaceOnUse" x="-201.8" y="-35.1">
      <feGaussianBlur in="SourceAlpha" result="blur" stdDeviation="1.744"/>
      <feOffset in="blur" result="offset" dx="2" dy="2"/>
      <feFlood flood-color="#afb8ff" flood-opacity=".5" result="flood"/>
      <feComposite in="flood" in2="offset" operator="in" result="color"/>
      <feMerge>
        <feMergeNode in="color"/>
        <feMergeNode in="SourceGraphic"/>
      </feMerge>
    </filter>
    <linearGradient id="Obj_Gradient_5" xl:href="#Gradient" gradientTransform="translate(408 228.5) rotate(90) scale(36)"/>
    <linearGradient id="Obj_Gradient_6" xl:href="#Gradient" gradientTransform="translate(117 228.5) rotate(90) scale(36)"/>
    <linearGradient id="Obj_Gradient_7" xl:href="#Gradient" gradientTransform="translate(405 142) rotate(90) scale(36)"/>
    <linearGradient id="Obj_Gradient_8" xl:href="#Gradient" gradientTransform="translate(114 142) rotate(90) scale(36)"/>
    <linearGradient id="Obj_Gradient_9" xl:href="#Gradient" gradientTransform="translate(407 56) rotate(90) scale(36)"/>
    <linearGradient id="Obj_Gradient_10" xl:href="#Gradient" gradientTransform="translate(116 56) rotate(90) scale(36)"/>
  </defs>
  <g id="Soundness_3" fill-opacity="1" stroke-dasharray="none" stroke="none" stroke-opacity="1" fill="none">
    <title>Soundness 3</title>
    <rect fill="#000314" x="-122" y="6" width="798" height="411"/>
    <g id="Soundness_3_Layer_1">
      <title>Layer 1</title>
      <g id="Line_151">
        <line x1="188.75691" y1="82.4824" x2="172.24309" y2="124.5176" stroke="#c8e9c4" stroke-linecap="round" stroke-linejoin="round" stroke-dasharray="4.0,4.0" stroke-width="1"/>
      </g>
      <g id="Graphic_55">
        <circle cx="169.5" cy="335.5" r="7.50001198426422" fill="white"/>
        <circle cx="169.5" cy="335.5" r="7.50001198426422" stroke="gray" stroke-linecap="round" stroke-linejoin="round" stroke-width="1"/>
      </g>
      <g id="Graphic_56">
        <circle cx="348.5" cy="335.5" r="7.50001198426423" fill="white"/>
        <circle cx="348.5" cy="335.5" r="7.50001198426423" stroke="gray" stroke-linecap="round" stroke-linejoin="round" stroke-width="1"/>
      </g>
      <g id="Graphic_49">
        <rect x="361" y="350" width="88" height="36" fill="url(#Obj_Gradient)"/>
      </g>
      <g id="Graphic_42">
        <rect x="70" y="350" width="88" height="36" fill="url(#Obj_Gradient_2)"/>
      </g>
      <g id="Graphic_40">
        <path d="M -13 386.93137 L -36 386.93137 L -36 104.93137 L -47 104.93137 L -24.5 64.93137 L -2 104.93137 L -13 104.93137 Z" fill="url(#Obj_Gradient_3)"/>
      </g>
      <g id="Graphic_39">
        <path d="M 534 64.93137 L 557 64.93137 L 557 346.93137 L 568 346.93137 L 545.5 386.93137 L 523 346.93137 L 534 346.93137 Z" fill="url(#Obj_Gradient_4)"/>
      </g>
      <g id="Graphic_37">
        <path d="M 75 329 L 153 329 C 155.76142 329 158 331.23858 158 334 L 158 345 C 158 347.76142 155.76142 350 153 350 L 75 350 C 72.23858 350 70 347.76142 70 345 L 70 334 C 70 331.23858 72.23858 329 75 329 Z" fill="#c8e9c4"/>
        <text transform="translate(70 330)" fill="black">
          <tspan font-family="Roboto Condensed" font-size="16" fill="black" x="18.417969" y="15" xml:space="preserve">requires</tspan>
        </text>
      </g>
      <g id="Line_36">
        <line x1="177" y1="335.5" x2="330.02" y2="335.5" marker-end="url(#FilledArrow_Marker)" stroke="#c8e9c4" stroke-linecap="round" stroke-linejoin="round" stroke-width="2"/>
      </g>
      <g id="Graphic_35">
        <text transform="translate(207 335)" fill="#c8e9c4">
          <tspan font-family="Roboto Condensed" font-style="italic" font-weight="bold" font-size="14" fill="#c8e9c4" x="0" y="13" xml:space="preserve">Functional Spec</tspan>
        </text>
      </g>
      <g id="Graphic_34">
        <text transform="translate(474 182)" fill="#c2dbea">
          <tspan font-family="Roboto Condensed" font-style="italic" font-size="16" fill="#c2dbea" x="0" y="15" xml:space="preserve">Soundness and upper-layer </tspan>
          <tspan font-family="Roboto Condensed" font-style="italic" font-size="16" fill="#c2dbea" x="0" y="34" xml:space="preserve">correctness drives lower-layer </tspan>
          <tspan font-family="Roboto Condensed" font-style="italic" font-size="16" fill="#c2dbea" x="0" y="53" xml:space="preserve">correctness precision.</tspan>
        </text>
      </g>
      <g id="Graphic_32">
        <text transform="translate(-6 309)" fill="#c8e9c4">
          <tspan font-family="Roboto Condensed" font-style="italic" font-weight="bold" font-size="14" fill="#c8e9c4" x="0" y="13" xml:space="preserve">Obligation</tspan>
        </text>
      </g>
      <g id="Graphic_31">
        <text transform="translate(-117 193)" fill="#c8e9c4">
          <tspan font-family="Roboto Condensed" font-style="italic" font-size="16" fill="#c8e9c4" x="0" y="15" xml:space="preserve">System soundness </tspan>
          <tspan font-family="Roboto Condensed" font-style="italic" font-size="16" fill="#c8e9c4" x="0" y="34" xml:space="preserve">depends on functions’ </tspan>
          <tspan font-family="Roboto Condensed" font-style="italic" font-size="16" fill="#c8e9c4" x="0" y="53" xml:space="preserve">correctness.</tspan>
        </text>
      </g>
      <g id="Graphic_30">
        <path d="M 366 329 L 444 329 C 446.7614 329 449 331.23858 449 334 L 449 345 C 449 347.76142 446.7614 350 444 350 L 366 350 C 363.23858 350 361 347.76142 361 345 L 361 334 C 361 331.23858 363.23858 329 366 329 Z" fill="#c8e9c4"/>
        <text transform="translate(361 330)" fill="black">
          <tspan font-family="Roboto Condensed" font-size="16" fill="black" x="19.097656" y="15" xml:space="preserve">ensures</tspan>
        </text>
      </g>
      <g id="Graphic_21">
        <text transform="translate(441 309)" fill="#c8e9c4">
          <tspan font-family="Roboto Condensed" font-style="italic" font-weight="bold" font-size="14" fill="#c8e9c4" x="0" y="13" xml:space="preserve">Guarantee</tspan>
        </text>
      </g>
      <g id="Graphic_41">
        <text transform="translate(75 301)" fill="#c2dbea">
          <tspan font-family="Roboto Condensed" font-style="italic" font-size="16" fill="#c2dbea" x="0" y="15" xml:space="preserve">write_pte()</tspan>
        </text>
      </g>
      <g id="Graphic_43">
        <circle cx="141.5" cy="385.5" r="7.50001198426423" fill="white"/>
        <circle cx="141.5" cy="385.5" r="7.50001198426423" stroke="gray" stroke-linecap="round" stroke-linejoin="round" stroke-width="1"/>
      </g>
      <g id="Graphic_44">
        <rect x="70" y="397" width="379" height="19" fill="#222645"/>
        <rect x="70" y="397" width="379" height="19" stroke="#8d96d5" stroke-linecap="round" stroke-linejoin="round" stroke-width=".5"/>
        <text transform="translate(75 397)" fill="white">
          <tspan font-family="Roboto Condensed" font-size="16" fill="white" x="77.35547" y="15" xml:space="preserve">Formal Model for Code Reasoning</tspan>
        </text>
      </g>
      <g id="Graphic_45">
        <circle cx="189.5" cy="385.5" r="7.50001198426423" fill="white"/>
        <circle cx="189.5" cy="385.5" r="7.50001198426423" stroke="gray" stroke-linecap="round" stroke-linejoin="round" stroke-width="1"/>
      </g>
      <g id="Graphic_46">
        <circle cx="237.5" cy="385.5" r="7.50001198426423" fill="white"/>
        <circle cx="237.5" cy="385.5" r="7.50001198426423" stroke="gray" stroke-linecap="round" stroke-linejoin="round" stroke-width="1"/>
      </g>
      <g id="Graphic_48">
        <circle cx="381.5" cy="385.5" r="7.50001198426423" fill="white"/>
        <circle cx="381.5" cy="385.5" r="7.50001198426423" stroke="gray" stroke-linecap="round" stroke-linejoin="round" stroke-width="1"/>
      </g>
      <g id="Line_50">
        <line x1="149" y1="385.5" x2="172.1" y2="385.5" marker-end="url(#FilledArrow_Marker_2)" stroke="#8d96d5" stroke-linecap="round" stroke-linejoin="round" stroke-width="1"/>
      </g>
      <g id="Line_51">
        <line x1="197" y1="385.5" x2="220.1" y2="385.5" marker-end="url(#FilledArrow_Marker_2)" stroke="#8d96d5" stroke-linecap="round" stroke-linejoin="round" stroke-width="1"/>
      </g>
      <g id="Graphic_52">
        <text transform="translate(277.5 376)" fill="#c2dbea">
          <tspan font-family="Roboto Condensed" font-style="italic" font-size="16" fill="#c2dbea" x="0" y="15" xml:space="preserve">…</tspan>
        </text>
      </g>
      <g id="Line_53">
        <line x1="245" y1="385.5" x2="262.6" y2="385.5" marker-end="url(#FilledArrow_Marker_2)" stroke="#8d96d5" stroke-linecap="round" stroke-linejoin="round" stroke-width="1"/>
      </g>
      <g id="Line_54">
        <line x1="291.7422" y1="385.5" x2="364.1" y2="385.5" marker-end="url(#FilledArrow_Marker_2)" stroke="#8d96d5" stroke-linecap="round" stroke-linejoin="round" stroke-width="1"/>
      </g>
      <g id="Graphic_57">
        <text transform="translate(104 376)" fill="#c2dbea">
          <tspan font-family="Roboto Condensed" font-style="italic" font-size="16" fill="#c2dbea" x="0" y="15" xml:space="preserve">t: </tspan>
        </text>
      </g>
      <g id="Line_58">
        <line x1="165.83454" y1="342.04547" x2="145.16546" y2="378.95453" stroke="white" stroke-linecap="round" stroke-linejoin="round" stroke-dasharray="8.0,8.0" stroke-width="2"/>
      </g>
      <g id="Line_59">
        <line x1="352.63213" y1="341.7608" x2="377.36787" y2="379.2392" stroke="white" stroke-linecap="round" stroke-linejoin="round" stroke-dasharray="8.0,8.0" stroke-width="2"/>
      </g>
      <g id="Graphic_60" filter="url(#Shadow)">
        <text transform="translate(179 349.5)" fill="white">
          <tspan font-family="Roboto Condensed" font-style="italic" font-size="12" fill="white" x="0" y="11" xml:space="preserve">Proof: every valid input produces an </tspan>
          <tspan font-family="Roboto Condensed" font-style="italic" font-size="12" fill="white" x="0" y="25" xml:space="preserve">output matching the specification.</tspan>
        </text>
      </g>
      <g id="Graphic_79">
        <circle cx="172.5" cy="218" r="7.50001198426422" fill="white"/>
        <circle cx="172.5" cy="218" r="7.50001198426422" stroke="gray" stroke-linecap="round" stroke-linejoin="round" stroke-width="1"/>
      </g>
      <g id="Graphic_80">
        <circle cx="351.5" cy="218" r="7.50001198426422" fill="white"/>
        <circle cx="351.5" cy="218" r="7.50001198426422" stroke="gray" stroke-linecap="round" stroke-linejoin="round" stroke-width="1"/>
      </g>
      <g id="Graphic_81">
        <rect x="364" y="228.5" width="88" height="36" fill="url(#Obj_Gradient_5)"/>
      </g>
      <g id="Graphic_82">
        <rect x="73" y="228.5" width="88" height="36" fill="url(#Obj_Gradient_6)"/>
      </g>
      <g id="Graphic_83">
        <path d="M 78 207.5 L 156 207.5 C 158.76142 207.5 161 209.73858 161 212.5 L 161 223.5 C 161 226.26142 158.76142 228.5 156 228.5 L 78 228.5 C 75.23858 228.5 73 226.26142 73 223.5 L 73 212.5 C 73 209.73858 75.23858 207.5 78 207.5 Z" fill="#c8e9c4"/>
        <text transform="translate(73 208.5)" fill="black">
          <tspan font-family="Roboto Condensed" font-size="16" fill="black" x="18.417969" y="15" xml:space="preserve">requires</tspan>
        </text>
      </g>
      <g id="Line_84">
        <line x1="180" y1="218" x2="333.02" y2="218" marker-end="url(#FilledArrow_Marker)" stroke="#c8e9c4" stroke-linecap="round" stroke-linejoin="round" stroke-width="2"/>
      </g>
      <g id="Graphic_85">
        <text transform="translate(200 217.5)" fill="#c8e9c4">
          <tspan font-family="Roboto Condensed" font-style="italic" font-weight="bold" font-size="14" fill="#c8e9c4" x="0" y="13" xml:space="preserve">spec: replace()</tspan>
        </text>
      </g>
      <g id="Graphic_86">
        <path d="M 369 207.5 L 447 207.5 C 449.7614 207.5 452 209.73858 452 212.5 L 452 223.5 C 452 226.26142 449.7614 228.5 447 228.5 L 369 228.5 C 366.23858 228.5 364 226.26142 364 223.5 L 364 212.5 C 364 209.73858 366.23858 207.5 369 207.5 Z" fill="#c8e9c4"/>
        <text transform="translate(364 208.5)" fill="black">
          <tspan font-family="Roboto Condensed" font-size="16" fill="black" x="19.097656" y="15" xml:space="preserve">ensures</tspan>
        </text>
      </g>
      <g id="Graphic_87">
        <text transform="translate(75 183)" fill="#c2dbea">
          <tspan font-family="Roboto Condensed" font-style="italic" font-size="16" fill="#c2dbea" x="0" y="15" xml:space="preserve">replace()</tspan>
        </text>
      </g>
      <g id="Graphic_88">
        <circle cx="144.5" cy="248" r="7.50001198426422" fill="white"/>
        <circle cx="144.5" cy="248" r="7.50001198426422" stroke="gray" stroke-linecap="round" stroke-linejoin="round" stroke-width="1"/>
      </g>
      <g id="Graphic_89">
        <circle cx="192.5" cy="248" r="7.50001198426422" fill="white"/>
        <circle cx="192.5" cy="248" r="7.50001198426422" stroke="gray" stroke-linecap="round" stroke-linejoin="round" stroke-width="1"/>
      </g>
      <g id="Graphic_90">
        <circle cx="240.5" cy="248" r="7.50001198426422" fill="white"/>
        <circle cx="240.5" cy="248" r="7.50001198426422" stroke="gray" stroke-linecap="round" stroke-linejoin="round" stroke-width="1"/>
      </g>
      <g id="Graphic_91">
        <circle cx="384.5" cy="248" r="7.50001198426422" fill="white"/>
        <circle cx="384.5" cy="248" r="7.50001198426422" stroke="gray" stroke-linecap="round" stroke-linejoin="round" stroke-width="1"/>
      </g>
      <g id="Line_92">
        <line x1="152" y1="248" x2="175.1" y2="248" marker-end="url(#FilledArrow_Marker_2)" stroke="#8d96d5" stroke-linecap="round" stroke-linejoin="round" stroke-width="1"/>
      </g>
      <g id="Line_93">
        <line x1="200" y1="248" x2="223.1" y2="248" marker-end="url(#FilledArrow_Marker_2)" stroke="#8d96d5" stroke-linecap="round" stroke-linejoin="round" stroke-width="1"/>
      </g>
      <g id="Graphic_94">
        <text transform="translate(280.5 238.5)" fill="#c2dbea">
          <tspan font-family="Roboto Condensed" font-style="italic" font-size="16" fill="#c2dbea" x="0" y="15" xml:space="preserve">…</tspan>
        </text>
      </g>
      <g id="Line_95">
        <line x1="248" y1="248" x2="265.6" y2="248" marker-end="url(#FilledArrow_Marker_2)" stroke="#8d96d5" stroke-linecap="round" stroke-linejoin="round" stroke-width="1"/>
      </g>
      <g id="Line_96">
        <line x1="294.7422" y1="248" x2="367.1" y2="248" marker-end="url(#FilledArrow_Marker_2)" stroke="#8d96d5" stroke-linecap="round" stroke-linejoin="round" stroke-width="1"/>
      </g>
      <g id="Line_98">
        <line x1="167.38256" y1="223.48297" x2="149.61744" y2="242.51703" stroke="white" stroke-linecap="round" stroke-linejoin="round" stroke-dasharray="8.0,8.0" stroke-width="2"/>
      </g>
      <g id="Line_99">
        <line x1="357.04966" y1="223.04514" x2="378.95034" y2="242.95486" stroke="white" stroke-linecap="round" stroke-linejoin="round" stroke-dasharray="8.0,8.0" stroke-width="2"/>
      </g>
      <g id="Graphic_102">
        <path d="M 208 258 L 212.5 251 L 217 258 Z" fill="#c70042"/>
        <path d="M 208 258 L 212.5 251 L 217 258 Z" stroke="#666" stroke-linecap="round" stroke-linejoin="round" stroke-width=".5"/>
      </g>
      <g id="Line_103">
        <path d="M 188.3593 254.25512 L 169 283.5 L 169.42789 328.00034" stroke="#c8e9c4" stroke-linecap="round" stroke-linejoin="round" stroke-dasharray="4.0,4.0" stroke-width="1"/>
      </g>
      <g id="Line_104">
        <path d="M 247.62327 250.35233 L 348 283.5 L 348.4279 328.00034" stroke="#c8e9c4" stroke-linecap="round" stroke-linejoin="round" stroke-dasharray="4.0,4.0" stroke-width="1"/>
      </g>
      <g id="Graphic_101">
        <rect x="199" y="258" width="81.83691" height="18" fill="#000314"/>
        <text transform="translate(200 259)" fill="#c2dbea">
          <tspan font-family="Roboto Condensed" font-style="italic" font-size="14" fill="#c2dbea" x="0" y="13" xml:space="preserve">call write_pte()</tspan>
        </text>
      </g>
      <g id="Graphic_105" filter="url(#Shadow)">
        <text transform="translate(179 282.5)" fill="white">
          <tspan font-family="Roboto Condensed" font-style="italic" font-size="12" fill="white" x="0" y="11" xml:space="preserve">Vertical composition:</tspan>
          <tspan font-family="Roboto Condensed" font-style="italic" font-size="12" fill="white" x="0" y="25" xml:space="preserve">callee&apos;s specification becomes the </tspan>
          <tspan font-family="Roboto Condensed" font-style="italic" font-size="12" fill="white" x="0" y="39" xml:space="preserve">premise on which the caller&apos;s proof is built</tspan>
        </text>
      </g>
      <g id="Graphic_106">
        <circle cx="169.5" cy="131.5" r="7.50001198426422" fill="white"/>
        <circle cx="169.5" cy="131.5" r="7.50001198426422" stroke="gray" stroke-linecap="round" stroke-linejoin="round" stroke-width="1"/>
      </g>
      <g id="Graphic_107">
        <circle cx="348.5" cy="131.5" r="7.50001198426423" fill="white"/>
        <circle cx="348.5" cy="131.5" r="7.50001198426423" stroke="gray" stroke-linecap="round" stroke-linejoin="round" stroke-width="1"/>
      </g>
      <g id="Graphic_108">
        <rect x="361" y="142" width="88" height="36" fill="url(#Obj_Gradient_7)"/>
      </g>
      <g id="Graphic_109">
        <rect x="70" y="142" width="88" height="36" fill="url(#Obj_Gradient_8)"/>
      </g>
      <g id="Graphic_110">
        <path d="M 75 121 L 153 121 C 155.76142 121 158 123.23858 158 126 L 158 137 C 158 139.76142 155.76142 142 153 142 L 75 142 C 72.23858 142 70 139.76142 70 137 L 70 126 C 70 123.23858 72.23858 121 75 121 Z" fill="#c8e9c4"/>
        <text transform="translate(70 122)" fill="black">
          <tspan font-family="Roboto Condensed" font-size="16" fill="black" x="18.417969" y="15" xml:space="preserve">requires</tspan>
        </text>
      </g>
      <g id="Line_111">
        <line x1="177" y1="131.5" x2="330.02" y2="131.5" marker-end="url(#FilledArrow_Marker)" stroke="#c8e9c4" stroke-linecap="round" stroke-linejoin="round" stroke-width="2"/>
      </g>
      <g id="Graphic_112">
        <text transform="translate(197 131)" fill="#c8e9c4">
          <tspan font-family="Roboto Condensed" font-style="italic" font-weight="bold" font-size="14" fill="#c8e9c4" x="0" y="13" xml:space="preserve">spec: replace()</tspan>
        </text>
      </g>
      <g id="Graphic_113">
        <path d="M 366 121 L 444 121 C 446.7614 121 449 123.23858 449 126 L 449 137 C 449 139.76142 446.7614 142 444 142 L 366 142 C 363.23858 142 361 139.76142 361 137 L 361 126 C 361 123.23858 363.23858 121 366 121 Z" fill="#c8e9c4"/>
        <text transform="translate(361 122)" fill="black">
          <tspan font-family="Roboto Condensed" font-size="16" fill="black" x="19.097656" y="15" xml:space="preserve">ensures</tspan>
        </text>
      </g>
      <g id="Graphic_114">
        <rect x="67" y="95" width="119.44531" height="23" fill="#000314"/>
        <text transform="translate(68 97)" fill="#c2dbea">
          <tspan font-family="Roboto Condensed" font-style="italic" font-size="16" fill="#c2dbea" x="0" y="15" xml:space="preserve">replace_cur_entry()</tspan>
        </text>
      </g>
      <g id="Graphic_115">
        <circle cx="141.5" cy="161.5" r="7.50001198426422" fill="white"/>
        <circle cx="141.5" cy="161.5" r="7.50001198426422" stroke="gray" stroke-linecap="round" stroke-linejoin="round" stroke-width="1"/>
      </g>
      <g id="Graphic_116">
        <circle cx="189.5" cy="161.5" r="7.50001198426422" fill="white"/>
        <circle cx="189.5" cy="161.5" r="7.50001198426422" stroke="gray" stroke-linecap="round" stroke-linejoin="round" stroke-width="1"/>
      </g>
      <g id="Graphic_117">
        <circle cx="237.5" cy="161.5" r="7.50001198426422" fill="white"/>
        <circle cx="237.5" cy="161.5" r="7.50001198426422" stroke="gray" stroke-linecap="round" stroke-linejoin="round" stroke-width="1"/>
      </g>
      <g id="Graphic_118">
        <circle cx="381.5" cy="161.5" r="7.50001198426422" fill="white"/>
        <circle cx="381.5" cy="161.5" r="7.50001198426422" stroke="gray" stroke-linecap="round" stroke-linejoin="round" stroke-width="1"/>
      </g>
      <g id="Line_119">
        <line x1="149" y1="161.5" x2="172.1" y2="161.5" marker-end="url(#FilledArrow_Marker_2)" stroke="#8d96d5" stroke-linecap="round" stroke-linejoin="round" stroke-width="1"/>
      </g>
      <g id="Line_120">
        <line x1="197" y1="161.5" x2="220.1" y2="161.5" marker-end="url(#FilledArrow_Marker_2)" stroke="#8d96d5" stroke-linecap="round" stroke-linejoin="round" stroke-width="1"/>
      </g>
      <g id="Graphic_121">
        <text transform="translate(277.5 152)" fill="#c2dbea">
          <tspan font-family="Roboto Condensed" font-style="italic" font-size="16" fill="#c2dbea" x="0" y="15" xml:space="preserve">…</tspan>
        </text>
      </g>
      <g id="Line_122">
        <line x1="245" y1="161.5" x2="262.6" y2="161.5" marker-end="url(#FilledArrow_Marker_2)" stroke="#8d96d5" stroke-linecap="round" stroke-linejoin="round" stroke-width="1"/>
      </g>
      <g id="Line_123">
        <line x1="291.7422" y1="161.5" x2="364.1" y2="161.5" marker-end="url(#FilledArrow_Marker_2)" stroke="#8d96d5" stroke-linecap="round" stroke-linejoin="round" stroke-width="1"/>
      </g>
      <g id="Line_124">
        <line x1="164.38256" y1="136.98297" x2="146.61744" y2="156.01703" stroke="white" stroke-linecap="round" stroke-linejoin="round" stroke-dasharray="8.0,8.0" stroke-width="2"/>
      </g>
      <g id="Line_125">
        <line x1="354.04966" y1="136.54514" x2="375.95034" y2="156.45486" stroke="white" stroke-linecap="round" stroke-linejoin="round" stroke-dasharray="8.0,8.0" stroke-width="2"/>
      </g>
      <g id="Graphic_126">
        <path d="M 205 171.5 L 209.5 164.5 L 214 171.5 Z" fill="#c70042"/>
        <path d="M 205 171.5 L 209.5 164.5 L 214 171.5 Z" stroke="#666" stroke-linecap="round" stroke-linejoin="round" stroke-width=".5"/>
      </g>
      <g id="Line_127">
        <line x1="187.33864" y1="168.68334" x2="174.66136" y2="210.81666" stroke="#c8e9c4" stroke-linecap="round" stroke-linejoin="round" stroke-dasharray="4.0,4.0" stroke-width="1"/>
      </g>
      <g id="Line_128">
        <line x1="244.22178" y1="164.8314" x2="344.77822" y2="214.6686" stroke="#c8e9c4" stroke-linecap="round" stroke-linejoin="round" stroke-dasharray="4.0,4.0" stroke-width="1"/>
      </g>
      <g id="Graphic_129">
        <rect x="196" y="171.5" width="72.12988" height="18" fill="#000314"/>
        <text transform="translate(197 172.5)" fill="#c2dbea">
          <tspan font-family="Roboto Condensed" font-style="italic" font-size="14" fill="#c2dbea" x="0" y="13" xml:space="preserve">call replace()</tspan>
        </text>
      </g>
      <g id="Graphic_130">
        <circle cx="171.5" cy="45.5" r="7.50001198426422" fill="white"/>
        <circle cx="171.5" cy="45.5" r="7.50001198426422" stroke="gray" stroke-linecap="round" stroke-linejoin="round" stroke-width="1"/>
      </g>
      <g id="Graphic_131">
        <circle cx="350.5" cy="45.5" r="7.50001198426422" fill="white"/>
        <circle cx="350.5" cy="45.5" r="7.50001198426422" stroke="gray" stroke-linecap="round" stroke-linejoin="round" stroke-width="1"/>
      </g>
      <g id="Graphic_132">
        <rect x="363" y="56" width="88" height="36" fill="url(#Obj_Gradient_9)"/>
      </g>
      <g id="Graphic_133">
        <rect x="72" y="56" width="88" height="36" fill="url(#Obj_Gradient_10)"/>
      </g>
      <g id="Graphic_134">
        <path d="M 77 35 L 155 35 C 157.76142 35 160 37.238576 160 40 L 160 51 C 160 53.761424 157.76142 56 155 56 L 77 56 C 74.23858 56 72 53.761424 72 51 L 72 40 C 72 37.238576 74.23858 35 77 35 Z" fill="#c8e9c4"/>
        <text transform="translate(72 36)" fill="black">
          <tspan font-family="Roboto Condensed" font-size="16" fill="black" x="18.417969" y="15" xml:space="preserve">requires</tspan>
        </text>
      </g>
      <g id="Line_135">
        <line x1="179" y1="45.5" x2="332.02" y2="45.5" marker-end="url(#FilledArrow_Marker)" stroke="#c8e9c4" stroke-linecap="round" stroke-linejoin="round" stroke-width="2"/>
      </g>
      <g id="Graphic_136">
        <text transform="translate(199 45)" fill="#c8e9c4">
          <tspan font-family="Roboto Condensed" font-style="italic" font-weight="bold" font-size="14" fill="#c8e9c4" x="0" y="13" xml:space="preserve">spec: replace()</tspan>
        </text>
      </g>
      <g id="Graphic_137">
        <path d="M 368 35 L 446 35 C 448.7614 35 451 37.238576 451 40 L 451 51 C 451 53.761424 448.7614 56 446 56 L 368 56 C 365.23858 56 363 53.761424 363 51 L 363 40 C 363 37.238576 365.23858 35 368 35 Z" fill="#c8e9c4"/>
        <text transform="translate(363 36)" fill="black">
          <tspan font-family="Roboto Condensed" font-size="16" fill="black" x="19.097656" y="15" xml:space="preserve">ensures</tspan>
        </text>
      </g>
      <g id="Graphic_138">
        <text transform="translate(74 11)" fill="#c2dbea">
          <tspan font-family="Roboto Condensed" font-style="italic" font-size="16" fill="#c2dbea" x="0" y="15" xml:space="preserve">CursorMut::map()</tspan>
        </text>
      </g>
      <g id="Graphic_139">
        <circle cx="143.5" cy="75.5" r="7.50001198426422" fill="white"/>
        <circle cx="143.5" cy="75.5" r="7.50001198426422" stroke="gray" stroke-linecap="round" stroke-linejoin="round" stroke-width="1"/>
      </g>
      <g id="Graphic_140">
        <circle cx="191.5" cy="75.5" r="7.50001198426422" fill="white"/>
        <circle cx="191.5" cy="75.5" r="7.50001198426422" stroke="gray" stroke-linecap="round" stroke-linejoin="round" stroke-width="1"/>
      </g>
      <g id="Graphic_141">
        <circle cx="239.5" cy="75.5" r="7.50001198426422" fill="white"/>
        <circle cx="239.5" cy="75.5" r="7.50001198426422" stroke="gray" stroke-linecap="round" stroke-linejoin="round" stroke-width="1"/>
      </g>
      <g id="Graphic_142">
        <circle cx="383.5" cy="75.5" r="7.50001198426422" fill="white"/>
        <circle cx="383.5" cy="75.5" r="7.50001198426422" stroke="gray" stroke-linecap="round" stroke-linejoin="round" stroke-width="1"/>
      </g>
      <g id="Line_143">
        <line x1="151" y1="75.5" x2="174.1" y2="75.5" marker-end="url(#FilledArrow_Marker_2)" stroke="#8d96d5" stroke-linecap="round" stroke-linejoin="round" stroke-width="1"/>
      </g>
      <g id="Line_144">
        <line x1="199" y1="75.5" x2="222.1" y2="75.5" marker-end="url(#FilledArrow_Marker_2)" stroke="#8d96d5" stroke-linecap="round" stroke-linejoin="round" stroke-width="1"/>
      </g>
      <g id="Graphic_145">
        <text transform="translate(279.5 66)" fill="#c2dbea">
          <tspan font-family="Roboto Condensed" font-style="italic" font-size="16" fill="#c2dbea" x="0" y="15" xml:space="preserve">…</tspan>
        </text>
      </g>
      <g id="Line_146">
        <line x1="247" y1="75.5" x2="264.6" y2="75.5" marker-end="url(#FilledArrow_Marker_2)" stroke="#8d96d5" stroke-linecap="round" stroke-linejoin="round" stroke-width="1"/>
      </g>
      <g id="Line_147">
        <line x1="293.7422" y1="75.5" x2="366.1" y2="75.5" marker-end="url(#FilledArrow_Marker_2)" stroke="#8d96d5" stroke-linecap="round" stroke-linejoin="round" stroke-width="1"/>
      </g>
      <g id="Line_148">
        <line x1="166.38256" y1="50.98297" x2="148.61744" y2="70.01703" stroke="white" stroke-linecap="round" stroke-linejoin="round" stroke-dasharray="8.0,8.0" stroke-width="2"/>
      </g>
      <g id="Line_149">
        <line x1="356.04966" y1="50.545145" x2="377.95034" y2="70.454855" stroke="white" stroke-linecap="round" stroke-linejoin="round" stroke-dasharray="8.0,8.0" stroke-width="2"/>
      </g>
      <g id="Graphic_150">
        <path d="M 207 85.5 L 211.5 78.5 L 216 85.5 Z" fill="#c70042"/>
        <path d="M 207 85.5 L 211.5 78.5 L 216 85.5 Z" stroke="#666" stroke-linecap="round" stroke-linejoin="round" stroke-width=".5"/>
      </g>
      <g id="Line_152">
        <line x1="246.17287" y1="78.92827" x2="341.82713" y2="128.07173" stroke="#c8e9c4" stroke-linecap="round" stroke-linejoin="round" stroke-dasharray="4.0,4.0" stroke-width="1"/>
      </g>
      <g id="Graphic_153">
        <rect x="198" y="85.5" width="126.96777" height="18" fill="#000314"/>
        <text transform="translate(199 86.5)" fill="#c2dbea">
          <tspan font-family="Roboto Condensed" font-style="italic" font-size="14" fill="#c2dbea" x="0" y="13" xml:space="preserve">call replace_cur_entry()</tspan>
        </text>
      </g>
    </g>
  </g>
</svg>
