<?xml version="1.0" encoding="UTF-8" standalone="no"?>
<!DOCTYPE svg PUBLIC "-//W3C//DTD SVG 1.1//EN" "http://www.w3.org/Graphics/SVG/1.1/DTD/svg11.dtd">
<svg xmlns:dc="http://purl.org/dc/elements/1.1/" version="1.1" xmlns="http://www.w3.org/2000/svg" xmlns:xl="http://www.w3.org/1999/xlink" viewBox="725 -383 468 379" width="468" height="379">
  <defs>
    <filter id="Shadow" filterUnits="userSpaceOnUse" x="678.2" y="-420.9">
      <feGaussianBlur in="SourceAlpha" result="blur" stdDeviation="1.744"/>
      <feOffset in="blur" result="offset" dx="2" dy="2"/>
      <feFlood flood-color="#afb8ff" flood-opacity=".5" result="flood"/>
      <feComposite in="flood" in2="offset" operator="in" result="color"/>
      <feMerge>
        <feMergeNode in="color"/>
        <feMergeNode in="SourceGraphic"/>
      </feMerge>
    </filter>
    <marker orient="auto" overflow="visible" markerUnits="strokeWidth" id="FilledArrow_Marker" stroke-linejoin="miter" stroke-miterlimit="10" viewBox="-1 -3 7 6" markerWidth="7" markerHeight="6" color="white">
      <g>
        <path d="M 4.8 0 L 0 -1.8 L 0 1.8 Z" fill="currentColor" stroke="currentColor" stroke-width="1"/>
      </g>
    </marker>
  </defs>
  <g id="Call_Model" stroke-opacity="1" fill="none" stroke-dasharray="none" fill-opacity="1" stroke="none">
    <title>Call Model</title>
    <rect fill="#000314" x="725" y="-383" width="468" height="379"/>
    <g id="Call_Model_Layer_1">
      <title>Layer 1</title>
      <g id="Graphic_914" filter="url(#Shadow)">
        <text transform="translate(827 -368.224)" fill="white">
          <tspan font-family="Helvetica Neue" font-size="16" fill="white" x="31.3" y="15" xml:space="preserve">System-wide Soundness</tspan>
        </text>
      </g>
      <g id="Group_995">
        <g id="Graphic_997">
          <rect x="864" y="-254.77778" width="17" height="17" id="path"/>
          <clipPath id="clip_path">
            <use xl:href="#path"/>
          </clipPath>
          <g clip-path="url(#clip_path)">
            <image xl:href="image7.png" width="384" height="384" transform="translate(864 -254.77778) scale(.044270833)"/>
          </g>
        </g>
        <g id="Graphic_996">
          <path d="M 859 -233 L 859 -256.2 L 861.7 -258.77778 L 886 -258.77778 L 886 -235.57778 L 883.3 -233 Z" fill="#43411e" fill-opacity=".5"/>
          <path d="M 859 -233 L 859 -256.2 L 861.7 -258.77778 L 886 -258.77778 L 886 -235.57778 L 883.3 -233 L 859 -233 M 859 -256.2 L 883.3 -256.2 L 886 -258.77778 M 883.3 -256.2 L 883.3 -233" stroke="#666" stroke-linecap="round" stroke-linejoin="round" stroke-width=".5"/>
        </g>
      </g>
      <g id="Group_998">
        <g id="Graphic_1000">
          <rect x="910" y="-101" width="17" height="17" id="path_2"/>
          <clipPath id="clip_path_2">
            <use xl:href="#path_2"/>
          </clipPath>
          <g clip-path="url(#clip_path_2)">
            <image xl:href="image7.png" width="384" height="384" transform="translate(910 -101) scale(.044270833)"/>
          </g>
        </g>
        <g id="Graphic_999">
          <path d="M 905 -79.22222 L 905 -102.42222 L 907.7 -105 L 932 -105 L 932 -81.8 L 929.3 -79.22222 Z" fill="#43411e" fill-opacity=".5"/>
          <path d="M 905 -79.22222 L 905 -102.42222 L 907.7 -105 L 932 -105 L 932 -81.8 L 929.3 -79.22222 L 905 -79.22222 M 905 -102.42222 L 929.3 -102.42222 L 932 -105 M 929.3 -102.42222 L 929.3 -79.22222" stroke="#666" stroke-linecap="round" stroke-linejoin="round" stroke-width=".5"/>
        </g>
      </g>
      <g id="Group_1001">
        <g id="Graphic_1003">
          <rect x="953.5" y="-254.77778" width="17" height="17" id="path_3"/>
          <clipPath id="clip_path_3">
            <use xl:href="#path_3"/>
          </clipPath>
          <g clip-path="url(#clip_path_3)">
            <image xl:href="image7.png" width="384" height="384" transform="translate(953.5 -254.77778) scale(.044270833)"/>
          </g>
        </g>
        <g id="Graphic_1002">
          <path d="M 948.5 -233 L 948.5 -256.2 L 951.2 -258.77778 L 975.5 -258.77778 L 975.5 -235.57778 L 972.8 -233 Z" fill="#43411e" fill-opacity=".5"/>
          <path d="M 948.5 -233 L 948.5 -256.2 L 951.2 -258.77778 L 975.5 -258.77778 L 975.5 -235.57778 L 972.8 -233 L 948.5 -233 M 948.5 -256.2 L 972.8 -256.2 L 975.5 -258.77778 M 972.8 -256.2 L 972.8 -233" stroke="#666" stroke-linecap="round" stroke-linejoin="round" stroke-width=".5"/>
        </g>
      </g>
      <g id="Group_1004">
        <g id="Graphic_1006">
          <rect x="996" y="-101" width="17" height="17" id="path_4"/>
          <clipPath id="clip_path_4">
            <use xl:href="#path_4"/>
          </clipPath>
          <g clip-path="url(#clip_path_4)">
            <image xl:href="image7.png" width="384" height="384" transform="translate(996 -101) scale(.044270833)"/>
          </g>
        </g>
        <g id="Graphic_1005">
          <path d="M 991 -79.22222 L 991 -102.42222 L 993.7 -105 L 1018 -105 L 1018 -81.8 L 1015.3 -79.22222 Z" fill="#43411e" fill-opacity=".5"/>
          <path d="M 991 -79.22222 L 991 -102.42222 L 993.7 -105 L 1018 -105 L 1018 -81.8 L 1015.3 -79.22222 L 991 -79.22222 M 991 -102.42222 L 1015.3 -102.42222 L 1018 -105 M 1015.3 -102.42222 L 1015.3 -79.22222" stroke="#666" stroke-linecap="round" stroke-linejoin="round" stroke-width=".5"/>
        </g>
      </g>
      <g id="Group_1007">
        <g id="Graphic_1009">
          <rect x="1043" y="-254" width="17" height="17" id="path_5"/>
          <clipPath id="clip_path_5">
            <use xl:href="#path_5"/>
          </clipPath>
          <g clip-path="url(#clip_path_5)">
            <image xl:href="image7.png" width="384" height="384" transform="translate(1043 -254) scale(.044270833)"/>
          </g>
        </g>
        <g id="Graphic_1008">
          <path d="M 1038 -232.22222 L 1038 -255.42222 L 1040.7 -258 L 1065 -258 L 1065 -234.8 L 1062.3 -232.22222 Z" fill="#43411e" fill-opacity=".5"/>
          <path d="M 1038 -232.22222 L 1038 -255.42222 L 1040.7 -258 L 1065 -258 L 1065 -234.8 L 1062.3 -232.22222 L 1038 -232.22222 M 1038 -255.42222 L 1062.3 -255.42222 L 1065 -258 M 1062.3 -255.42222 L 1062.3 -232.22222" stroke="#666" stroke-linecap="round" stroke-linejoin="round" stroke-width=".5"/>
        </g>
      </g>
      <g id="Line_1015">
        <line x1="876.3555" y1="-233" x2="910.9476" y2="-117.3589" marker-end="url(#FilledArrow_Marker)" stroke="white" stroke-linecap="round" stroke-linejoin="round" stroke-width="2"/>
      </g>
      <g id="Line_1016">
        <line x1="922.146" y1="-105" x2="954.8427" y2="-220.58708" marker-end="url(#FilledArrow_Marker)" stroke="white" stroke-linecap="round" stroke-linejoin="round" stroke-width="2"/>
      </g>
      <g id="Line_1017">
        <path d="M 859 -251.3294 C 846.6257 -264.15254 837.1642 -293.5712 864 -303 C 888.925 -311.75744 897.9669 -286.02582 891.89 -266.12415" marker-end="url(#FilledArrow_Marker)" stroke="white" stroke-linecap="round" stroke-linejoin="round" stroke-dasharray="8.0,8.0" stroke-width="2"/>
      </g>
      <g id="Graphic_1018">
        <text transform="translate(831 -327.168)" fill="white">
          <tspan font-family="Helvetica Neue" font-size="12" fill="white" x="0" y="11" xml:space="preserve">Caller Steps</tspan>
        </text>
      </g>
      <g id="Graphic_1019">
        <text transform="translate(842 -128.668)" fill="white">
          <tspan font-family="Helvetica Neue" font-size="12" fill="white" x="0" y="11" xml:space="preserve">OSTD Call</tspan>
        </text>
      </g>
      <g id="Line_1021">
        <path d="M 948.5 -252.67818 C 935.6696 -267.89748 925.2906 -302.26355 952.2842 -311.7478 C 977.575 -320.63377 987.0812 -289.9238 980.8245 -267.32563" marker-end="url(#FilledArrow_Marker)" stroke="white" stroke-linecap="round" stroke-linejoin="round" stroke-dasharray="8.0,8.0" stroke-width="2"/>
      </g>
      <g id="Line_1022">
        <path d="M 1038 -252.3164 C 1026.6395 -267.2164 1019.1328 -299.1307 1045.5973 -308.42905 C 1071.0584 -317.37484 1078.7159 -287.39295 1071.0772 -265.50525" marker-end="url(#FilledArrow_Marker)" stroke="white" stroke-linecap="round" stroke-linejoin="round" stroke-dasharray="8.0,8.0" stroke-width="2"/>
      </g>
      <g id="Line_1023">
        <line x1="965.5621" y1="-233" x2="997.5015" y2="-117.43388" marker-end="url(#FilledArrow_Marker)" stroke="white" stroke-linecap="round" stroke-linejoin="round" stroke-width="2"/>
      </g>
      <g id="Line_1024">
        <line x1="1008.4593" y1="-105" x2="1043.7526" y2="-219.89093" marker-end="url(#FilledArrow_Marker)" stroke="white" stroke-linecap="round" stroke-linejoin="round" stroke-width="2"/>
      </g>
      <g id="Graphic_1020">
        <path d="M 954 -176 L 1055 -176 C 1057.7614 -176 1060 -173.76142 1060 -171 L 1060 -152 C 1060 -149.23858 1057.7614 -147 1055 -147 L 954 -147 C 951.2386 -147 949 -149.23858 949 -152 L 949 -171 C 949 -173.76142 951.2386 -176 954 -176 Z" fill="#000314"/>
        <text transform="translate(954 -175.836)" fill="white">
          <tspan font-family="Helvetica Neue" font-size="12" fill="white" x="0" y="11" xml:space="preserve">UB free and</tspan>
          <tspan font-family="Helvetica Neue" font-size="12" fill="white" x="0" y="25.336" xml:space="preserve">Inv preservation</tspan>
        </text>
      </g>
      <g id="Graphic_1028" filter="url(#Shadow)">
        <text transform="translate(732 -97.5)" fill="white">
          <tspan font-family="Helvetica" font-weight="bold" font-size="14" fill="white" x="0" y="14" xml:space="preserve">System-wide:</tspan>
          <tspan font-family="Helvetica" font-size="14" fill="white" x="0" y="48" xml:space="preserve">- Every sequence of calls is UB-free.</tspan>
          <tspan font-family="Helvetica" font-size="14" fill="white" x="0" y="65" xml:space="preserve">- Invariant preservation at each step ==&gt; Soundness across all steps.</tspan>
        </text>
      </g>
      <g id="Graphic_1041">
        <text transform="translate(732 -163)" fill="white" fill-opacity=".61043">
          <tspan font-family="Helvetica" font-weight="bold" font-size="16" fill="white" fill-opacity=".61043" x="0" y="15" xml:space="preserve">OSTD API Boundary</tspan>
        </text>
      </g>
      <g id="Line_1042">
        <line x1="734" y1="-139" x2="1164" y2="-139" stroke="#666" stroke-linecap="round" stroke-linejoin="round" stroke-width="2"/>
      </g>
    </g>
  </g>
</svg>
